<svg width="253" height="48" viewBox="0 0 253 48" fill="none" xmlns="http://www.w3.org/2000/svg">
<path d="M67.9999 38.4C63.5199 38.4 59.9599 37.4267 57.3199 35.48C54.7066 33.5333 53.3999 30.4933 53.3999 26.36V11.08C53.3999 10.7867 53.5066 10.5333 53.7199 10.32C53.9332 10.1067 54.1866 10 54.4799 10H62.8399C63.1332 10 63.3866 10.1067 63.5999 10.32C63.8132 10.5333 63.9199 10.7867 63.9199 11.08V27C63.9199 28.0933 64.2799 28.9333 64.9999 29.52C65.7466 30.1067 66.7466 30.4 67.9999 30.4C69.2532 30.4 70.2399 30.1067 70.9599 29.52C71.7066 28.9333 72.0799 28.0933 72.0799 27V11.08C72.0799 10.7867 72.1866 10.5333 72.3999 10.32C72.6132 10.1067 72.8666 10 73.1599 10H81.5199C81.8132 10 82.0666 10.1067 82.2799 10.32C82.4932 10.5333 82.5999 10.7867 82.5999 11.08V26.36C82.5999 30.4933 81.2799 33.5333 78.6399 35.48C76.0266 37.4267 72.4799 38.4 67.9999 38.4Z" fill="#DBDEE5"/>
<path d="M157.44 23.4C158.48 23.72 159.373 24.4267 160.12 25.52C160.867 26.5867 161.24 27.8133 161.24 29.2C161.24 32.16 160.28 34.3733 158.36 35.84C156.44 37.28 153.64 38 149.96 38H133.48C133.187 38 132.933 37.8933 132.72 37.68C132.507 37.4667 132.4 37.2133 132.4 36.92V11.08C132.4 10.7867 132.507 10.5333 132.72 10.32C132.933 10.1067 133.187 10 133.48 10H149.56C153.347 10 156.133 10.6933 157.92 12.08C159.733 13.44 160.64 15.5067 160.64 18.28V18.4C160.64 19.68 160.293 20.7733 159.6 21.68C158.907 22.5867 158.187 23.16 157.44 23.4ZM149.8 18.64C149.8 18.16 149.653 17.7467 149.36 17.4C149.093 17.0533 148.693 16.88 148.16 16.88H142.8V20.52H148.16C148.693 20.52 149.093 20.3333 149.36 19.96C149.653 19.56 149.8 19.12 149.8 18.64ZM148.6 31.12C149.213 31.12 149.667 30.92 149.96 30.52C150.28 30.0933 150.44 29.6267 150.44 29.12V29.08C150.44 28.5733 150.267 28.1333 149.92 27.76C149.6 27.3867 149.16 27.2 148.6 27.2H142.8V31.12H148.6Z" fill="#DBDEE5"/>
<path d="M198.04 29.8C198.333 29.8 198.587 29.9067 198.8 30.12C199.013 30.3333 199.12 30.5867 199.12 30.88V36.92C199.12 37.2133 199.013 37.4667 198.8 37.68C198.587 37.8933 198.333 38 198.04 38H174.68C174.387 38 174.133 37.8933 173.92 37.68C173.707 37.4667 173.6 37.2133 173.6 36.92V11.08C173.6 10.7867 173.707 10.5333 173.92 10.32C174.133 10.1067 174.387 10 174.68 10H183.32C183.613 10 183.867 10.1067 184.08 10.32C184.293 10.5333 184.4 10.7867 184.4 11.08V29.8H198.04Z" fill="#DBDEE5"/>
<path d="M223 15C223 6.71573 229.716 0 238 0C246.284 0 253 6.71573 253 15C253 23.2843 246.284 30 238 30C229.716 30 223 23.2843 223 15Z" fill="url(#paint0_linear_310_673)"/>
<path d="M30 33C30 41.2843 23.2843 48 15 48C6.71573 48 0 41.2843 0 33C0 24.7157 6.71573 18 15 18C23.2843 18 30 24.7157 30 33Z" fill="url(#paint1_linear_310_673)"/>
<path d="M139 24C139 32.2843 132.284 39 124 39C115.716 39 109 32.2843 109 24C109 15.7157 115.716 9 124 9C132.284 9 139 15.7157 139 24Z" fill="url(#paint2_linear_310_673)"/>
<path d="M118.44 23.4C119.48 23.72 120.373 24.4267 121.12 25.52C121.867 26.5867 122.24 27.8133 122.24 29.2C122.24 32.16 121.28 34.3733 119.36 35.84C117.44 37.28 114.64 38 110.96 38H94.4799C94.1866 38 93.9332 37.8933 93.7199 37.68C93.5066 37.4667 93.3999 37.2133 93.3999 36.92V11.08C93.3999 10.7867 93.5066 10.5333 93.7199 10.32C93.9332 10.1067 94.1866 10 94.4799 10H110.56C114.347 10 117.133 10.6933 118.92 12.08C120.733 13.44 121.64 15.5067 121.64 18.28V18.4C121.64 19.68 121.293 20.7733 120.6 21.68C119.907 22.5867 119.187 23.16 118.44 23.4ZM110.8 18.64C110.8 18.16 110.653 17.7467 110.36 17.4C110.093 17.0533 109.693 16.88 109.16 16.88H103.8V20.52H109.16C109.693 20.52 110.093 20.3333 110.36 19.96C110.653 19.56 110.8 19.12 110.8 18.64ZM109.6 31.12C110.213 31.12 110.667 30.92 110.96 30.52C111.28 30.0933 111.44 29.6267 111.44 29.12V29.08C111.44 28.5733 111.267 28.1333 110.92 27.76C110.6 27.3867 110.16 27.2 109.6 27.2H103.8V31.12H109.6Z" fill="#DBDEE5"/>
<path d="M236.96 30.2C237.253 30.2 237.507 30.3067 237.72 30.52C237.933 30.7333 238.04 30.9867 238.04 31.28V36.92C238.04 37.2133 237.933 37.4667 237.72 37.68C237.507 37.8933 237.253 38 236.96 38H211.68C211.387 38 211.133 37.8933 210.92 37.68C210.707 37.4667 210.6 37.2133 210.6 36.92V11.08C210.6 10.7867 210.707 10.5333 210.92 10.32C211.133 10.1067 211.387 10 211.68 10H236.56C236.853 10 237.107 10.1067 237.32 10.32C237.533 10.5333 237.64 10.7867 237.64 11.08V16.72C237.64 17.0133 237.533 17.2667 237.32 17.48C237.107 17.6933 236.853 17.8 236.56 17.8H221V20.32H234.36C234.653 20.32 234.907 20.4267 235.12 20.64C235.333 20.8533 235.44 21.1067 235.44 21.4V26.6C235.44 26.8933 235.333 27.1467 235.12 27.36C234.907 27.5733 234.653 27.68 234.36 27.68H221V30.2H236.96Z" fill="#DBDEE5"/>
<path d="M40.4399 23.4C41.4799 23.72 42.3732 24.4267 43.1199 25.52C43.8666 26.5867 44.2399 27.8133 44.2399 29.2C44.2399 32.16 43.2799 34.3733 41.3599 35.84C39.4399 37.28 36.6399 38 32.9599 38H16.4799C16.1866 38 15.9332 37.8933 15.7199 37.68C15.5066 37.4667 15.3999 37.2133 15.3999 36.92V11.08C15.3999 10.7867 15.5066 10.5333 15.7199 10.32C15.9332 10.1067 16.1866 10 16.4799 10H32.5599C36.3466 10 39.1332 10.6933 40.9199 12.08C42.7332 13.44 43.6399 15.5067 43.6399 18.28V18.4C43.6399 19.68 43.2932 20.7733 42.5999 21.68C41.9066 22.5867 41.1866 23.16 40.4399 23.4ZM32.7999 18.64C32.7999 18.16 32.6532 17.7467 32.3599 17.4C32.0932 17.0533 31.6932 16.88 31.1599 16.88H25.7999V20.52H31.1599C31.6932 20.52 32.0932 20.3333 32.3599 19.96C32.6532 19.56 32.7999 19.12 32.7999 18.64ZM31.5999 31.12C32.2132 31.12 32.6666 30.92 32.9599 30.52C33.2799 30.0933 33.4399 29.6267 33.4399 29.12V29.08C33.4399 28.5733 33.2666 28.1333 32.9199 27.76C32.5999 27.3867 32.1599 27.2 31.5999 27.2H25.7999V31.12H31.5999Z" fill="#DBDEE5"/>
<defs>
<linearGradient id="paint0_linear_310_673" x1="229.047" y1="21.5183" x2="248.445" y2="2.67016" gradientUnits="userSpaceOnUse">
<stop stop-color="#352F44"/>
<stop offset="1" stop-color="#5C5470"/>
</linearGradient>
<linearGradient id="paint1_linear_310_673" x1="23.9529" y1="26.4817" x2="4.55497" y2="45.3298" gradientUnits="userSpaceOnUse">
<stop stop-color="#352F44"/>
<stop offset="1" stop-color="#5C5470"/>
</linearGradient>
<linearGradient id="paint2_linear_310_673" x1="132.953" y1="17.4817" x2="113.555" y2="36.3298" gradientUnits="userSpaceOnUse">
<stop stop-color="#352F44"/>
<stop offset="1" stop-color="#5C5470"/>
</linearGradient>
</defs>
</svg>
